<?xml version="1.0" encoding="UTF-8"?>
<svg xmlns="http://www.w3.org/2000/svg" width="301" height="130" viewBox="0 0 301 130" fill="none">
  <g clip-path="url(#clip0_955_437)">
    <path d="M0 105.313C0.25637 98.7247 0.427284 92.1359 0.790475 85.5471C0.91866 83.0229 1.34594 80.4986 1.88005 78.0171C2.37142 75.6426 2.90553 75.3217 5.29832 75.3217C9.74207 75.3217 14.1858 75.2575 18.6509 75.3431C20.296 75.3645 21.9837 75.557 23.5861 75.9634C27.4743 76.9047 29.5467 79.7071 29.7603 83.7074C29.9099 86.7665 29.1407 89.5475 27.4316 92.0503C26.4489 93.4836 25.3166 94.8313 24.2697 96.2432C23.2229 97.6765 23.2229 98.2327 24.2911 99.6445C25.167 100.778 26.1498 101.805 27.0684 102.918C29.9953 106.404 32.1104 110.298 32.324 114.919C32.4308 117.101 32.2599 119.411 31.6831 121.507C30.5721 125.529 27.6666 127.861 23.5861 128.695C22.4965 128.909 21.3855 129.016 20.2746 129.037C14.8695 129.08 9.46433 129.059 4.08056 129.037C1.85868 129.037 1.51686 128.866 1.23912 126.748C0.790475 123.368 0.470012 119.967 0.341827 116.566C0.192278 112.843 0.299099 109.1 0.299099 105.356C0.213642 105.356 0.128185 105.356 0.0427284 105.356M8.33203 111.346C8.48158 112.843 8.56704 114.362 8.82341 115.838C9.42161 119.325 11.0239 120.866 14.5704 120.994C16.1086 121.058 17.7536 120.801 19.2064 120.288C22.4324 119.176 24.0561 116.33 23.5006 112.972C22.9024 109.335 21.0651 106.297 18.48 103.709C17.3264 102.575 16.7922 102.575 15.2968 103.431C13.9294 104.222 12.6262 105.142 11.2376 105.891C9.01569 107.068 7.92611 108.779 8.33203 111.346ZM8.09703 94.2109C8.09703 95.1522 8.01157 96.1148 8.09703 97.0561C8.26794 98.5749 9.16523 99.1097 10.5966 98.5963C11.1948 98.3824 11.793 98.1043 12.2844 97.7192C14.1431 96.2218 16.0018 94.7457 17.7323 93.1199C19.2491 91.6867 20.3173 89.8897 20.766 87.8147C21.2787 85.5257 20.3601 83.793 18.3305 83.0229C15.019 81.7607 10.9812 83.3437 9.44297 86.5312C8.26794 88.9485 8.09703 91.5583 8.07566 94.1895" fill="#F5333F"></path>
    <path d="M107.205 105.035C107.654 97.27 108.06 89.4833 108.573 81.7179C108.68 80.1563 109.128 78.5947 109.534 77.0544C109.855 75.8565 110.624 75.2575 111.97 75.2789C117.14 75.3431 122.289 75.2789 127.459 75.3858C128.719 75.3858 130.001 75.6639 131.197 76.0062C134.68 76.9902 136.645 79.4076 137.073 83.0228C137.521 86.8092 136.303 90.0822 134.103 93.0557C133.312 94.1467 132.394 95.1522 131.625 96.2432C130.599 97.6978 130.599 98.254 131.667 99.6445C132.501 100.714 133.419 101.698 134.295 102.746C137.008 105.955 138.974 109.528 139.636 113.742C140.064 116.395 139.914 118.983 139.081 121.529C137.756 125.486 135 127.882 130.92 128.695C129.83 128.909 128.719 129.016 127.608 129.037C122.203 129.08 116.819 129.059 111.414 129.037C109.235 129.037 108.893 128.845 108.573 126.706C108.167 124.032 107.804 121.358 107.718 118.662C107.59 114.127 107.675 109.592 107.675 105.057C107.526 105.057 107.355 105.057 107.205 105.057M115.602 111.325C115.943 113.357 116.114 115.411 116.648 117.4C117.183 119.389 118.593 120.545 120.708 120.908C122.908 121.293 125.002 120.994 126.989 120.181C129.873 119.004 131.411 116.159 130.898 113.036C130.3 109.399 128.463 106.362 125.899 103.752C124.724 102.575 124.254 102.554 122.737 103.41C121.37 104.201 120.067 105.121 118.678 105.87C116.477 107.046 115.302 108.693 115.602 111.325ZM115.281 94.4248H115.431C115.431 95.1736 115.431 95.8795 115.431 96.6068C115.431 96.7566 115.431 96.9277 115.473 97.0775C115.708 98.5963 116.542 99.1097 117.994 98.6391C118.358 98.5107 118.785 98.3824 119.063 98.1471C121.37 96.2218 123.784 94.3821 125.899 92.2642C127.352 90.8096 128.313 88.9057 128.292 86.7023C128.271 84.7128 127.224 83.2368 125.322 82.9373C121.327 82.3169 117.588 83.0656 116.221 88.3495C115.708 90.3389 115.58 92.414 115.281 94.4462" fill="#F5333F"></path>
    <path d="M278.845 129.037C279.529 127.112 279.935 125.786 280.469 124.502C281.858 121.187 283.076 117.849 283.311 114.213C283.567 110.298 282.05 108.48 278.098 108.629C275.513 108.715 272.842 109.036 270.385 109.806C266.006 111.154 263.997 114.876 265.087 119.368C265.664 121.743 266.668 124.01 267.501 126.321C267.757 127.048 268.099 127.754 268.526 128.823C267.48 128.909 266.732 129.037 265.984 129.037C264.168 129.059 262.331 129.059 260.494 129.037C258.379 128.995 257.588 128.524 257.075 126.449C256.584 124.459 256.306 122.384 256.157 120.331C255.409 109.613 256.755 99.2168 261.583 89.4834C264.083 84.4562 267.245 79.8997 271.624 76.3272C274.722 73.8029 275.491 73.8243 278.546 76.4769C282.926 80.2847 285.682 85.1835 287.647 90.553C289.784 96.4144 290.98 102.49 291.087 108.736C291.173 113.25 291.13 117.785 291.002 122.299C290.959 123.861 290.574 125.444 290.168 126.984C289.72 128.717 289.207 129.059 287.498 129.08C284.806 129.102 282.135 129.08 278.803 129.08M281.751 96.8636C281.131 93.4837 279.785 89.954 277.478 86.8521C275.919 84.7557 274.893 84.6273 273.034 86.4671C269.659 89.847 267.565 93.9971 266.347 98.5964C266.241 98.9815 266.219 99.3879 266.219 99.773C266.219 101.335 266.689 101.762 268.227 101.57C271.987 101.078 275.748 100.564 279.486 100.03C281.26 99.773 281.772 99.1098 281.73 96.885" fill="#F5333F"></path>
    <path d="M166.705 128.481C167.431 126.684 168.072 125.144 168.692 123.604C169.952 120.416 171.063 117.186 171.191 113.699C171.319 110.277 169.867 108.715 166.427 108.565C163.778 108.458 161.193 108.736 158.672 109.549C153.908 111.111 151.814 114.662 152.989 119.561C153.523 121.786 154.484 123.903 155.275 126.064C155.574 126.877 155.937 127.647 156.343 128.588C155.702 128.759 155.254 128.952 154.826 128.973C152.604 129.016 150.383 128.952 148.161 128.995C146.58 129.037 145.533 128.353 145.17 126.834C144.764 125.208 144.358 123.582 144.208 121.935C143.183 111.218 144.315 100.8 148.78 90.8953C151.301 85.3119 154.655 80.3276 159.377 76.37C162.603 73.6746 163.522 73.7174 166.683 76.5839C170.978 80.4559 173.734 85.3547 175.656 90.7455C178.583 98.8745 179.352 107.324 179.139 115.881C179.053 118.812 178.818 121.743 178.583 124.673C178.498 125.615 178.22 126.556 177.921 127.454C177.622 128.332 177.045 128.973 176.02 128.973C173.392 128.973 170.764 128.973 168.158 128.93C167.794 128.93 167.431 128.695 166.726 128.438M154.036 99.2382C153.908 101.27 154.399 101.805 156.044 101.591C159.89 101.078 163.714 100.565 167.559 99.9869C169.055 99.773 169.717 99.0671 169.546 97.5482C169.098 93.1628 167.346 89.3123 164.504 85.9751C163.714 85.0552 162.71 84.9697 161.77 85.7398C161.043 86.3388 160.317 86.9591 159.697 87.6865C157.39 90.4674 155.724 93.6121 154.591 97.0134C154.314 97.8477 154.164 98.7034 154.036 99.2382Z" fill="#F5333F"></path>
    <path d="M222.786 106.148C223.085 107.281 223.234 107.88 223.405 108.479C223.854 109.998 224.217 111.56 224.794 113.015C227.251 119.24 234.451 120.737 239.386 118.577C243.552 116.737 244.534 111.902 241.18 108.822C239.663 107.41 237.634 106.447 235.69 105.613C232.549 104.265 229.387 103.024 226.589 100.992C218.363 95.0666 220.008 80.7125 227.721 76.3271C230.819 74.5729 234.151 74.0809 237.612 74.4446C241.223 74.8296 244.599 75.9634 247.44 78.3379C249.705 80.2204 249.918 81.0333 248.743 83.6646C247.91 85.5257 247.184 87.4938 245.026 88.7559C244.064 87.7933 243.124 86.8734 242.206 85.9107C240.924 84.563 239.45 83.5576 237.612 83.0656C235.668 82.5522 233.831 82.8089 232.079 83.7074C228.939 85.3118 228.063 89.1196 230.434 91.7508C231.609 93.0557 233.254 94.0612 234.835 94.8954C236.715 95.9009 238.809 96.5212 240.732 97.4197C242.163 98.0829 243.552 98.8744 244.876 99.7515C256.114 107.26 252.738 122.705 244.855 127.561C237.805 131.904 225.456 130.535 221.29 122.085C219.175 117.785 219.068 113.357 220.948 108.95C221.333 108.052 222.038 107.324 222.85 106.126" fill="#F5333F"></path>
    <path d="M95.2415 88.8629C94.152 87.6435 93.1906 86.36 92.0369 85.2904C89.58 83.0442 86.7386 82.1458 83.4699 83.3223C79.2825 84.8198 78.1715 89.4619 81.5471 92.414C83.2348 93.89 85.4567 94.7671 87.465 95.8367C90.3278 97.3556 93.4469 98.5107 96.0747 100.35C105.667 107.11 103.253 120.373 97.7625 125.615C94.1733 129.037 89.8364 130.214 85.0722 129.936C83.0426 129.829 80.9702 129.337 79.0688 128.567C72.8305 126.064 69.7327 120.652 70.2241 113.742C70.4163 111.089 71.0359 108.586 73.3432 106.383C73.621 107.324 73.8346 108.03 74.0483 108.736C74.4114 110.041 74.6678 111.367 75.1592 112.63C77.7229 119.197 84.8158 120.694 89.7937 118.598C94.2374 116.737 95.0706 111.389 91.3105 108.33C89.9218 107.196 88.1913 106.469 86.5677 105.677C83.8758 104.351 80.9916 103.303 78.4065 101.784C69.5404 96.6068 70.5659 84.6914 74.8387 79.3434C76.676 77.033 79.0261 75.45 81.9316 74.8296C87.6786 73.5889 92.9983 74.5729 97.7411 78.124C100.305 80.0493 100.454 80.9478 99.2366 83.8357C98.1043 86.467 97.442 87.3654 95.2842 88.8201" fill="#F5333F"></path>
    <path d="M186.424 106.233C186.702 107.367 186.83 108.03 187.022 108.693C187.471 110.212 187.855 111.774 188.475 113.229C190.996 119.218 198.046 120.737 202.981 118.598C207.468 116.651 208.087 111.239 204.135 108.137C202.789 107.089 201.101 106.447 199.542 105.677C196.636 104.222 193.56 103.067 190.825 101.335C186.723 98.7247 184.651 94.7672 184.843 89.847C184.928 87.7291 185.078 85.5258 185.719 83.5363C187.236 78.7872 190.547 75.7496 195.504 74.7655C201.187 73.6531 206.399 74.7655 210.993 78.3594C213.236 80.1135 213.492 81.119 212.275 83.7288C211.612 85.1621 210.8 86.5526 209.839 87.7933C209.006 88.9057 208.514 88.8201 207.51 87.8361C206.613 86.9376 205.823 85.9108 204.861 85.0979C202.404 82.9801 199.606 82.21 196.444 83.3652C192.342 84.884 191.38 89.2052 194.393 92.3498C196.102 94.1468 198.388 94.8741 200.524 95.9009C203.387 97.27 206.357 98.5108 208.942 100.265C219.068 107.132 216.547 122.577 208.322 127.604C202.191 131.348 192.149 130.749 186.937 125.208C182.664 120.673 181.831 112.651 185.27 107.495C185.484 107.175 185.783 106.918 186.381 106.233" fill="#F5333F"></path>
    <path d="M41.7883 75.4501C42.707 75.386 43.3265 75.3218 43.9461 75.3218C50.6117 75.3218 57.2987 75.3218 63.9643 75.3218C64.4343 75.3218 64.9257 75.3218 65.3957 75.3646C66.3998 75.4501 66.8699 75.9849 66.528 76.969C65.5025 79.9639 64.3489 82.916 62.6184 85.7398C61.9347 85.3119 61.4006 85.0338 60.9093 84.6701C58.8797 83.2583 56.6364 82.6379 54.1582 82.7235C51.0176 82.8304 48.7103 84.2851 47.2789 87.0661C46.2534 89.0341 46.0611 91.1734 46.403 93.334C46.7234 95.302 47.7489 95.8796 49.629 95.1951C51.5517 94.4891 53.4532 93.6121 55.4187 93.0131C56.615 92.6494 57.9183 92.5424 59.1574 92.5852C60.8238 92.6494 61.2511 93.3126 60.7597 94.8956C59.9479 97.484 59.0933 100.03 58.2174 102.597C58.0464 103.11 57.726 103.559 57.4055 104.137C56.5082 103.859 55.6964 103.602 54.8846 103.367C51.274 102.297 47.9626 103.731 46.403 107.196C44.9075 110.49 44.9929 113.87 46.4457 117.143C47.6848 119.967 50.6117 121.422 53.6882 121.015C56.2946 120.673 58.5165 119.539 60.6315 118.063C61.2724 117.614 61.9561 117.229 62.8534 116.673C65.2248 120.374 66.2289 124.417 67.6176 128.652C66.6348 128.824 65.9939 129.016 65.3316 129.016C56.9996 129.016 48.6462 129.037 40.3142 129.016C38.1778 129.016 37.8359 128.652 37.6009 126.577C37.5582 126.192 37.5368 125.786 37.5368 125.379C37.4941 116.63 37.2805 107.881 38.3914 99.174C39.246 92.4783 40.0364 85.7611 40.891 79.0654C41.0406 77.9102 41.4465 76.7764 41.7669 75.4501" fill="#F5333F"></path>
    <path d="M301 124.524C301 126.706 299.291 128.417 297.048 128.417C294.804 128.417 293.074 126.706 293.074 124.524C293.074 122.342 294.847 120.673 297.048 120.673C299.248 120.673 301 122.384 301 124.524ZM294.078 124.524C294.078 126.235 295.338 127.604 297.09 127.604C298.842 127.604 300.017 126.235 300.017 124.545C300.017 122.855 298.778 121.443 297.048 121.443C295.317 121.443 294.057 122.834 294.057 124.524M296.449 126.535H295.552V122.684C295.894 122.62 296.407 122.556 297.026 122.556C297.753 122.556 298.073 122.684 298.372 122.834C298.586 123.005 298.757 123.304 298.757 123.689C298.757 124.117 298.436 124.438 297.966 124.588V124.631C298.351 124.78 298.564 125.058 298.671 125.572C298.799 126.171 298.864 126.406 298.949 126.535H297.988C297.881 126.385 297.795 126.043 297.689 125.593C297.624 125.165 297.389 124.973 296.898 124.973H296.471V126.535H296.449ZM296.471 124.353H296.898C297.389 124.353 297.795 124.181 297.795 123.796C297.795 123.433 297.539 123.219 296.962 123.219C296.727 123.219 296.556 123.219 296.471 123.262V124.374V124.353Z" fill="#F5333F"></path>
    <path d="M167.987 5.90429C167.709 6.84554 167.41 7.7868 167.068 9.00615C169.717 7.16643 170.956 4.02178 174.011 3.18749C175.379 2.82382 176.276 0.919921 177.9 1.88257C178.113 2.80243 178.071 3.89343 178.605 4.40684C179.096 4.89886 180.271 5.15556 180.997 4.94164C183.647 4.17153 185.313 5.45505 186.616 7.42313C187.343 8.51413 187.749 9.84044 188.411 11.2951C188.945 10.6533 189.522 9.99019 190.056 9.26285C191.295 7.61566 192.449 5.90429 193.773 4.29988C194.692 3.18749 195.931 2.43876 197.619 2.31041V4.29988C199.242 3.31584 200.823 2.35319 202.575 1.30498C202.575 1.04827 202.511 0.534863 202.468 -0.0427246C202.832 5.96605e-05 203.131 -0.0427246 203.259 0.0642361C205.566 2.13927 207.895 4.17153 210.138 6.33213C217.423 13.3274 224.644 20.3868 231.908 27.4034C233.276 28.7297 234.75 29.9491 236.331 31.3609C235.967 31.6176 235.647 31.853 235.113 32.2594C236.01 33.222 236.972 34.1419 237.805 35.1473C238.275 35.7035 239.749 35.9175 238.702 37.2224C238.638 37.3079 239.322 38.0781 239.706 38.4631C243.317 42.0356 246.927 45.6295 250.559 49.1806C250.965 49.587 251.221 49.8223 250.623 50.2074C250.922 50.6352 251.157 51.1487 251.563 51.4695C255.003 54.4217 258.464 57.331 261.925 60.2617C262.224 60.497 262.523 60.7109 262.651 61.3527C261.369 60.8607 260.045 60.4756 258.827 59.8766C253.7 57.4166 249.256 53.9082 244.919 50.293C233.489 40.7307 223.17 30.0132 213.151 19.0177C210.694 16.3009 208.322 13.5199 205.929 10.7389C205.438 10.1613 205.032 9.51956 204.583 8.92058C204.69 8.79223 204.797 8.64248 204.904 8.51413C205.887 9.02754 206.848 9.54095 207.809 10.0758C206.677 7.70123 204.925 5.92568 203.131 3.93621C202.511 4.53519 201.956 4.94164 201.528 5.47645C200.268 7.01668 199.05 8.57831 197.832 10.1613C196.999 11.2309 196.294 12.3861 195.397 13.3915C194.628 14.2472 193.666 14.9532 192.684 15.8302C192.513 15.5308 192.32 15.2099 192.064 14.8034C191.167 15.9158 190.44 16.8571 189.671 17.7555C188.496 19.1888 187.15 20.344 185.313 20.9644C184.202 21.328 183.241 22.1195 182.194 22.6971C181.553 23.0608 180.891 23.3817 180.057 23.5314C181.852 20.0873 185.292 17.7341 186.039 13.4985C185.334 13.2632 184.758 13.0493 184.181 12.9209C183.732 12.8139 183.219 12.8781 182.749 12.8353C178.006 12.3861 176.319 10.6533 175.998 5.90429C175.977 5.58341 175.913 5.28392 175.827 4.57798C175.186 5.00582 174.631 5.24113 174.289 5.64758C172.922 7.29478 171.576 8.98476 170.294 10.6961C165.466 17.1138 160.851 23.7025 155.275 29.5212C153.63 31.2326 151.793 32.7728 149.955 34.2703C149.058 34.9976 147.926 35.404 146.9 35.9602L146.516 35.511C147.584 34.3558 148.652 33.2007 149.72 32.0455C149.656 31.9385 149.592 31.853 149.528 31.746C149.058 32.0455 148.567 32.3236 148.118 32.6445C144.23 35.5324 140.363 38.4631 136.41 41.2655C134.616 42.5276 132.629 43.5331 129.852 43.8753C131.881 41.5864 134.466 40.7735 136.154 38.6984C135.641 38.891 135.086 39.0193 134.616 39.2974C130.599 41.6933 126.626 44.1962 122.545 46.5066C120.344 47.7473 118.016 48.7955 115.644 49.7154C113.999 50.3571 113.593 50.186 111.906 49.5229C114.384 48.3891 116.777 47.3409 119.105 46.2285C127.373 42.2281 135.257 37.6502 141.88 31.1684C145.17 27.9382 148.438 24.6866 151.686 21.4136C156.621 16.4506 161.513 11.4662 166.448 6.50327C166.769 6.18239 167.153 5.94707 167.517 5.69037C167.666 5.79733 167.816 5.90429 167.987 6.01125" fill="#001689"></path>
    <path d="M77.2316 52.3251C77.8725 51.8545 78.5134 51.3839 79.133 50.9133C74.9029 52.047 70.7582 53.3733 66.2717 52.2182C66.7204 52.047 67.169 51.8331 67.639 51.7048C75.9283 49.3944 83.9399 46.3781 91.5456 42.3778C95.1988 40.4739 98.6812 38.2919 101.288 34.4627V36.3666C103.104 34.9761 104.663 33.7568 106.458 32.3663C106.415 32.9439 106.372 33.2861 106.308 34.0563C112.504 29.6281 117.909 24.6651 123.699 20.1514C119.383 28.8152 113.166 35.8318 105.261 41.3724C96.8439 47.2766 87.5291 51.0202 77.2529 52.3037" fill="#001689"></path>
    <path d="M226.717 49.2019C221.525 49.0094 216.825 47.5761 212.915 44.1533C209.668 41.3082 205.972 39.3615 201.699 38.7197C197.491 38.0994 193.26 38.4416 189.223 39.8107C185.313 41.137 181.446 42.5917 177.686 44.2817C175.507 45.2443 173.37 45.8219 171.02 45.6722C167.474 45.4369 163.97 44.9235 160.573 43.7041C166.854 43.4688 172.324 40.7948 177.814 38.2063C180.912 36.7517 184.01 35.3184 187.193 34.1418C189.18 33.4145 191.338 33.115 193.453 32.7513C194.649 32.5374 195.888 32.2807 196.978 33.4573C197.405 33.9065 198.473 33.7995 199.242 33.8851C204.348 34.3771 208.963 36.1741 213.065 39.2331C213.813 39.7893 214.924 40.1316 214.689 41.5863C214.625 41.9286 215.607 42.5489 216.184 42.9126C219.325 44.7951 222.487 46.6134 225.649 48.4745C226.033 48.6885 226.354 48.988 226.717 49.2447" fill="#001689"></path>
    <path d="M73.2791 35.2757C71.7409 36.7304 70.2881 38.2706 68.6431 39.6183C64.2207 43.2977 59.2856 46.2285 54.1154 48.6458C47.4284 51.769 40.6133 54.55 33.8194 57.4379C32.5162 57.9941 31.1062 58.2508 29.6321 58.6787C29.4611 58.1867 29.3116 57.8016 29.1193 57.2882C25.5515 59.0424 21.7914 59.7269 17.3477 59.406C18.0954 59.021 18.4372 58.7856 18.8004 58.6359C27.4956 54.9565 36.1909 51.277 44.8647 47.5762C47.1293 46.6135 49.3512 45.5225 51.6372 44.6454C52.7267 44.2176 53.8591 42.9341 55.205 44.3673C55.3545 44.5171 56.0809 44.1962 56.4868 43.9823C57.6832 43.3619 58.8583 42.6774 60.0333 42.0356C62.0415 40.9446 64.007 39.8536 66.2075 39.0621C68.6003 38.185 70.694 36.4309 72.9159 35.0618C73.0441 35.1259 73.1509 35.2115 73.2791 35.2757Z" fill="#001689"></path>
    <path d="M139.359 27.2963C139.038 27.7669 138.803 28.1305 138.44 28.6653H142.499C142.115 29.9703 141.452 30.8046 140.277 31.0399C135.385 32.0667 130.856 31.3608 126.796 28.0236C127.074 27.553 127.288 27.1893 127.501 26.8042C126.989 26.3764 126.455 25.9272 125.814 25.371C126.348 25.0287 126.69 24.7934 127.053 24.5581C126.497 23.8949 125.963 23.2531 125.258 22.4402C126.134 22.1621 126.775 21.9482 127.48 21.7343C126.946 20.2582 125.344 19.2742 126.049 17.4131C130.514 20.7289 134.915 24.0019 139.359 27.2749" fill="#001689"></path>
  </g>
  <defs>
    <clipPath id="clip0_955_437">
      <rect width="301" height="130" fill="white"></rect>
    </clipPath>
  </defs>
</svg>
