<?xml version="1.0" encoding="utf-8"?>
<!-- Generator: Adobe Illustrator 24.2.1, SVG Export Plug-In . SVG Version: 6.00 Build 0)  -->
<svg version="1.1" id="Calque_1" xmlns="http://www.w3.org/2000/svg" xmlns:xlink="http://www.w3.org/1999/xlink" x="0px" y="0px"
	 width="643.8px" height="145.8px" viewBox="0 0 643.8 145.8" style="enable-background:new 0 0 643.8 145.8;" xml:space="preserve"
	>
<style type="text/css">
	.st0{fill:#0D2166;}
</style>
<g>
	<path class="st0" d="M179.9,92.6c-6.7,3.8-16.8,5.7-30.4,5.7c-13.4,0-23.5-1.9-30.4-5.6c-8.8-4.6-13.3-13.1-13.3-25.7V35.3
		c0-12.7,4.4-21.5,13.1-26.3c6.4-3.7,16.6-5.6,30.6-5.6c13.5,0,23.7,1.9,30.4,5.6c8.7,4.8,13.1,13.6,13.1,26.3v0.2c0,5.4-4,8-11.9,8
		c-8,0-12.1-2.7-12.1-8v-0.2c0-10.9-1.3-17.6-4-20.3c-2.4-2.3-7.6-3.4-15.5-3.4c-8.2,0-13.5,1.1-15.9,3.4c-2.7,3-4,9.7-4,20.3v31.6
		c0,9.1,1,15.2,3,18.3c1.3,1.9,3.4,3.3,6.2,4.1c2.8,0.9,6.4,1.3,10.7,1.3c8.7,0,14.4-1.9,16.9-5.6c1.1-1.3,1.8-3.5,2.1-6.5
		c0.3-3,0.5-6.9,0.5-11.6v-0.6c0-5.2,4-7.8,12.1-7.8c7.9,0,11.9,2.6,11.9,7.8v0.6C193,79.4,188.6,87.9,179.9,92.6"/>
	<path class="st0" d="M272.7,23.2c-0.3-3-1-5.2-2.1-6.5c-1.2-1.9-3.3-3.2-6.1-4.1c-2.9-0.9-6.5-1.3-10.8-1.3
		c-8.2,0-13.5,1.2-15.9,3.6c-2.7,2.7-4,9.4-4,20.1V48c2.7-0.4,5.7-0.7,9-0.8c3.3-0.1,6.9-0.2,11-0.2c13,0,19.5-4,19.5-12.1
		C273.2,30.1,273,26.2,272.7,23.2 M284,92.7c-6.8,3.7-17,5.6-30.4,5.6c-13.9,0-24.1-1.9-30.6-5.6C214.4,88,210,79.3,210,66.5V35
		c0-11.9,4-20.4,11.9-25.5c3.8-2.4,8.4-4.3,14.1-5.5c5.6-1.3,11.5-1.9,17.5-1.9c6,0,11.9,0.6,17.6,1.9c5.7,1.3,10.4,3.1,14.2,5.5
		c7.9,5.2,11.9,13.7,11.9,25.5c0,13.1-14.5,19.7-43.4,19.7c-13.3,0-19.9,4-19.9,11.9c0,4.7,0.3,8.6,0.8,11.7
		c0.5,3.1,1.3,5.4,2.2,6.8c2.5,3.5,8.2,5.2,16.9,5.2c8.7,0,14.4-1.8,16.9-5.4c1.1-1.5,1.8-3.7,2.1-6.7c0.3-3,0.5-6.9,0.5-11.6
		c0-5.2,4-7.8,12.1-7.8c7.9,0,11.8,2.6,11.8,7.8C297.1,79.1,292.7,87.8,284,92.7"/>
	<path class="st0" d="M391.2,98.1c-8,0-12-2.7-12-8V35.4c0-10.8-1.3-17.6-4-20.3c-2.4-2.3-7.6-3.4-15.5-3.4
		c-8.2,0-13.5,1.1-15.9,3.4c-2.7,2.9-4,9.7-4,20.3v55.2c0,5.1-4,7.6-11.9,7.6c-7.9,0-11.9-2.5-11.9-7.6V35.4
		c0-12.7,4.4-21.5,13.1-26.3c6-3.5,16.2-5.2,30.6-5.2c14.6,0,25.1,1.9,31.6,5.8C399.1,14.4,403,23,403,35.4v54.6
		C403,95.4,399.1,98.1,391.2,98.1"/>
	<path class="st0" d="M484.5,23.2c-0.3-3-1-5.2-2.1-6.5c-1.2-1.9-3.3-3.2-6.1-4.1c-2.9-0.9-6.5-1.3-10.8-1.3
		c-8.2,0-13.5,1.2-15.9,3.6c-2.7,2.7-4,9.4-4,20.1V48c2.7-0.4,5.7-0.7,8.9-0.8c3.3-0.1,6.9-0.2,11-0.2c13,0,19.5-4,19.5-12.1
		C485,30.1,484.9,26.2,484.5,23.2 M495.9,92.7c-6.8,3.7-17,5.6-30.4,5.6c-13.9,0-24.1-1.9-30.6-5.6c-8.7-4.7-13.1-13.4-13.1-26.1V35
		c0-11.9,4-20.4,11.9-25.5c3.7-2.4,8.4-4.3,14.1-5.5c5.6-1.3,11.5-1.9,17.5-1.9c6,0,11.9,0.6,17.6,1.9c5.7,1.3,10.4,3.1,14.2,5.5
		C505,14.6,509,23.2,509,35c0,13.1-14.5,19.7-43.4,19.7c-13.3,0-19.9,4-19.9,11.9c0,4.7,0.3,8.6,0.8,11.7c0.5,3.1,1.3,5.4,2.2,6.8
		c2.5,3.5,8.2,5.2,16.9,5.2c8.7,0,14.4-1.8,16.9-5.4c1.1-1.5,1.8-3.7,2.1-6.7c0.3-3,0.5-6.9,0.5-11.6c0-5.2,4-7.8,12.1-7.8
		c7.9,0,11.9,2.6,11.9,7.8C509,79.1,504.6,87.8,495.9,92.7"/>
	<path class="st0" d="M63.2,35.4c0-10.8-1.3-17.6-4-20.3c-2.4-2.3-7.6-3.4-15.5-3.4c-8.2,0-13.5,1.1-15.9,3.4c-2.7,2.9-4,9.7-4,20.3
		v31.5c0,9.1,1,15.2,3,18.3c1.3,1.9,3.4,3.2,6.2,4.1c2.8,0.9,6.4,1.3,10.7,1.3c8.7,0,14.4-1.9,16.9-5.6c1.1-1.3,1.8-3.5,2.1-6.5
		c0.3-3,0.5-6.9,0.5-11.5V35.4z M75.2,92.5c-6.7,3.9-17.2,5.8-31.6,5.8c-14.3,0-24.5-1.7-30.6-5.2C4.4,88.2,0,79.5,0,67V35.4
		C0,22.7,4.4,13.9,13.1,9.1c6-3.5,16.2-5.2,30.6-5.2c14.6,0,25.1,1.9,31.6,5.8c7.9,4.7,11.9,13.3,11.9,25.7V67
		C87.1,79.3,83.1,87.8,75.2,92.5"/>
	<path class="st0" d="M631.1,6.2c-6.2-3.7-15.9-5.7-29.1-6.1c-0.6,2.2-0.7,5.2,1.9,8.1c4.6,5.1,12,13.7,12,13.7
		c9.5,10.1,9,26-1.1,35.5c-10.1,9.5-26,9-35.4-1.1c-9.5-10.1-9-26,1.1-35.5l12.6-12.5c0,0,3.6-3.7,3-8.2c-14.4,0.1-24.8,1.9-31,5.5
		c-9.3,5.1-13.9,14.4-13.9,28V67c0,13.4,4.6,22.6,13.9,27.7c6.4,3.7,17.2,5.6,32.5,5.6s26.4-2.1,33.5-6.2c8.4-5,12.6-14,12.6-27.1
		V33.5C643.7,20.2,639.5,11.1,631.1,6.2"/>
</g>
<g>
	<rect x="522.5" y="130.1" class="st0" width="2.5" height="10.4"/>
	<g>
		<polygon class="st0" points="541,114.7 537.5,114.7 526,126.3 525,126.3 525,114.7 522.5,114.7 522.5,128.8 526,128.8 
			537.5,140.5 541,140.5 528.3,127.6 		"/>
		<polygon class="st0" points="544.7,128.6 556,128.6 556,126.1 544.7,126.1 544.7,118.5 542.2,118.5 542.2,140.5 558.1,140.5 
			558.1,138 544.7,138 		"/>
		<rect x="542.2" y="114.7" class="st0" width="15.9" height="2.5"/>
		<path class="st0" d="M573,127c1.3-1.4,2.1-3.1,2.1-5c0-4-3.4-7.3-7.6-7.3h-7.6v2.5h7.6c2.8,0,5.1,2.2,5.1,4.8
			c0,2.6-2.3,4.8-5.1,4.8h-5.1v-8.4h-2.5v22h2.5v-11.1h4.4l6.1,11.1h2.9l-6.3-11.4C570.9,128.7,572.1,128,573,127z"/>
		<polygon class="st0" points="587.2,114.7 576.5,140.5 579.2,140.5 588.1,119 592.5,129.4 585.2,129.4 584.1,131.9 593.5,131.9 
			597.1,140.5 599.8,140.5 589,114.7 		"/>
		<polygon class="st0" points="603.2,114.7 600.7,114.7 600.7,140.5 615.2,140.5 615.2,138 603.2,138 		"/>
		<rect x="617" y="114.7" class="st0" width="2.5" height="25.8"/>
		<polygon class="st0" points="631.2,114.7 620.4,140.5 623.1,140.5 632.1,119 636.4,129.4 629.1,129.4 628.1,131.9 637.5,131.9 
			641,140.5 643.8,140.5 633,114.7 		"/>
	</g>
</g>
<g>
	<path class="st0" d="M437.3,128.5l0,9.1c0,0-2.3,2.6-7.4,2.6c-6.3,0-9.4-4.1-9.4-12.3c0-7.6,2.7-13.1,9.3-13.1
		c4.4,0,7.1,2.5,7.1,6.8l-0.8,0.1c0-3.8-2.4-6.1-6.2-6.1c-6.2,0-8.4,5.3-8.4,12.3c0,7.7,2.8,11.5,8.5,11.5c3.7,0,5.8-1.6,6.5-2.1
		l0-8h-6.6v-0.8H437.3z"/>
	<path class="st0" d="M448.8,123.4l-0.1,0.8c0,0-0.2-0.1-0.6-0.1c-2.9,0-4.2,3.2-4.7,4.6v11h-0.8v-16.3h0.8v3.7
		c0.7-1.7,2.2-3.8,4.8-3.8C448.6,123.4,448.8,123.4,448.8,123.4z"/>
	<path class="st0" d="M462.8,131.6c0,5.8-2.2,8.6-6.1,8.6c-4.1,0-6-3-6-8.5c0-5.8,2.2-8.6,6.1-8.6
		C460.9,123.2,462.8,126.1,462.8,131.6z M456.7,139.5c3.5,0,5.3-2.4,5.3-7.8c0-5.2-1.6-7.8-5.2-7.8c-3.5,0-5.3,2.4-5.3,7.8
		C451.5,136.8,453.1,139.4,456.7,139.5L456.7,139.5z"/>
	<path class="st0" d="M477.7,123.5h0.8v16.3h-0.8l0-2.6c-0.8,1.2-2.5,3-5.6,3c-3.1,0-4.9-1.8-4.9-5.6v-11h0.8v11
		c0,3.3,1.3,4.9,4.1,4.9c3.4,0,5-2.3,5.6-3.4V123.5z"/>
	<path class="st0" d="M495.6,131.4c0,5.8-2.2,8.8-6.3,8.8c-2.6,0-4.3-1.3-5.1-3.8v9.5h-0.8v-22.3h0.8v3.9c0.8-2.9,2.6-4.3,5.5-4.3
		C493.7,123.1,495.6,125.8,495.6,131.4z M494.8,131.4c0-5.1-1.7-7.5-5.1-7.5c-3.6,0-5.4,2.7-5.4,8.1c0,5.1,1.7,7.5,5.1,7.5
		C493,139.4,494.8,136.7,494.8,131.4z"/>
	<path class="st0" d="M500.1,131.4c0,0.1,0,0.2,0,0.3c0,4.5,1.4,7.7,5.3,7.7c2.6,0,4.5-1.5,4.6-3.5l0.7,0.1
		c-0.1,2.4-2.2,4.2-5.3,4.2c-4.3,0-6.1-3.2-6.1-8.4c0-6.1,2.4-8.6,6.1-8.6c3.6,0,5.4,2.8,5.4,7.5c0,0.5,0,0.8,0,0.8H500.1z
		 M505.4,123.9c-3.8,0-5.1,3.1-5.3,6.9h9.9c0-0.1,0-0.3,0-0.5C510.1,126.3,508.3,123.9,505.4,123.9L505.4,123.9z"/>
</g>
</svg>
