<?xml version="1.0" encoding="utf-8"?>
<!-- Generator: Adobe Illustrator 25.2.3, SVG Export Plug-In . SVG Version: 6.00 Build 0)  -->
<svg version="1.1" id="Layer_1" xmlns="http://www.w3.org/2000/svg" xmlns:xlink="http://www.w3.org/1999/xlink" x="0px" y="0px"
	 viewBox="0 0 566.93 510.24" style="enable-background:new 0 0 566.93 510.24;" xml:space="preserve">
<style type="text/css">
	.st0{fill:#63A9DD;}
	.st1{fill:#203C88;}
</style>
<g>
	<g>
		<path class="st0" d="M364.76,292.39c0.7-0.8,1.54-1.41,2.54-1.85c0.99-0.44,2.11-0.66,3.35-0.66c0.67,0,1.27,0.03,1.8,0.1
			c0.53,0.07,1.04,0.17,1.53,0.31c0.48,0.14,0.96,0.33,1.42,0.56c0.46,0.23,0.96,0.5,1.48,0.81c0.42,0.26,0.82,0.39,1.21,0.39
			c0.3,0,0.58-0.08,0.83-0.24c0.25-0.16,0.47-0.37,0.66-0.65l1.92-2.92c-0.57-0.55-1.23-1.06-1.96-1.53
			c-0.73-0.47-1.54-0.87-2.42-1.21c-0.88-0.34-1.84-0.61-2.89-0.8c-1.05-0.2-2.16-0.29-3.35-0.29c-2.3,0-4.38,0.36-6.24,1.08
			c-1.86,0.72-3.44,1.72-4.76,3.02c-1.31,1.29-2.32,2.83-3.03,4.61c-0.7,1.78-1.06,3.74-1.06,5.86c0,2.09,0.37,4.02,1.11,5.81
			c0.74,1.78,1.76,3.32,3.05,4.62s2.84,2.32,4.61,3.05c1.77,0.74,3.71,1.11,5.79,1.11c1.16,0,2.25-0.06,3.26-0.18
			c1.01-0.12,1.96-0.3,2.86-0.55c0.89-0.25,1.74-0.57,2.53-0.95c0.79-0.38,1.55-0.85,2.28-1.38v-12.04h-10.14v3.64
			c0,0.34,0.12,0.62,0.35,0.84c0.24,0.22,0.56,0.33,0.98,0.33h2.82v4.33c-0.63,0.26-1.29,0.47-2,0.63c-0.7,0.16-1.51,0.24-2.43,0.24
			c-1.2,0-2.31-0.21-3.32-0.64c-1.01-0.42-1.89-1.04-2.62-1.85c-0.74-0.81-1.32-1.8-1.73-2.98s-0.63-2.52-0.63-4.03
			c0-1.37,0.19-2.61,0.57-3.73C363.52,294.14,364.06,293.18,364.76,292.39z"/>
		<path class="st0" d="M442.3,288.63c-1.29-1.3-2.85-2.33-4.67-3.08c-1.82-0.75-3.84-1.13-6.06-1.13c-2.22,0-4.24,0.37-6.07,1.12
			c-1.83,0.74-3.39,1.77-4.69,3.07c-1.3,1.31-2.3,2.85-3.01,4.62c-0.71,1.77-1.07,3.69-1.07,5.76c0,2.06,0.35,3.98,1.07,5.76
			c0.71,1.77,1.72,3.32,3.01,4.63c1.3,1.31,2.86,2.34,4.69,3.08c1.83,0.74,3.85,1.12,6.07,1.12c2.22,0,4.24-0.37,6.06-1.12
			s3.38-1.77,4.67-3.08c1.29-1.31,2.29-2.86,3.01-4.63c0.71-1.77,1.07-3.69,1.07-5.76c0-2.05-0.36-3.96-1.07-5.74
			C444.59,291.47,443.59,289.93,442.3,288.63z M439.05,302.81c-0.37,1.13-0.89,2.09-1.58,2.87c-0.68,0.78-1.52,1.38-2.52,1.79
			c-0.99,0.41-2.12,0.62-3.39,0.62c-1.28,0-2.42-0.21-3.42-0.62c-1-0.41-1.84-1.01-2.53-1.79c-0.68-0.78-1.21-1.74-1.58-2.87
			c-0.37-1.13-0.55-2.4-0.55-3.83c0-1.41,0.18-2.68,0.55-3.81c0.37-1.13,0.89-2.08,1.58-2.87c0.69-0.78,1.53-1.38,2.53-1.8
			c1-0.42,2.14-0.63,3.42-0.63c1.27,0,2.39,0.21,3.39,0.63c0.99,0.42,1.83,1.02,2.52,1.8c0.69,0.78,1.21,1.74,1.58,2.87
			c0.37,1.13,0.55,2.4,0.55,3.81C439.6,300.41,439.42,301.68,439.05,302.81z"/>
		<path class="st0" d="M470.96,301.63c0,1-0.13,1.9-0.38,2.69c-0.25,0.79-0.62,1.46-1.11,2.01c-0.48,0.55-1.07,0.97-1.77,1.26
			c-0.7,0.29-1.49,0.44-2.38,0.44c-0.89,0-1.68-0.15-2.38-0.44c-0.7-0.29-1.29-0.72-1.77-1.27c-0.48-0.55-0.85-1.23-1.11-2.02
			c-0.25-0.79-0.38-1.69-0.38-2.69v-16.88h-6.62v16.9c0,1.75,0.28,3.35,0.84,4.82c0.56,1.46,1.37,2.72,2.43,3.78
			c1.06,1.06,2.34,1.88,3.86,2.47c1.51,0.59,3.22,0.88,5.13,0.88c1.89,0,3.6-0.29,5.11-0.88c1.51-0.59,2.8-1.41,3.86-2.47
			c1.06-1.06,1.87-2.32,2.44-3.78c0.57-1.46,0.85-3.07,0.85-4.82v-16.9h-6.62V301.63z"/>
		<path class="st0" d="M506.67,290.37c-0.44-1.14-1.13-2.12-2.07-2.96c-0.93-0.84-2.12-1.49-3.56-1.97
			c-1.44-0.48-3.17-0.72-5.18-0.72H485.8v28.53h6.62v-9.53h3.45c1.97,0,3.68-0.24,5.12-0.72c1.44-0.48,2.63-1.14,3.57-1.99
			c0.94-0.85,1.64-1.87,2.09-3.05c0.46-1.19,0.69-2.49,0.69-3.92C507.34,292.73,507.12,291.51,506.67,290.37z M499.59,297.5
			c-0.76,0.82-2,1.23-3.72,1.23h-3.45v-9.05h3.45c0.84,0,1.56,0.1,2.16,0.31c0.61,0.21,1.11,0.51,1.51,0.89
			c0.4,0.39,0.7,0.85,0.89,1.38c0.2,0.53,0.29,1.13,0.29,1.78C500.72,295.53,500.34,296.68,499.59,297.5z"/>
		<path class="st0" d="M405.5,302.14c-0.39-0.33-0.8-0.6-1.24-0.82c0.93-0.35,1.75-0.8,2.46-1.35c0.71-0.55,1.31-1.17,1.8-1.87
			c0.49-0.7,0.86-1.46,1.11-2.28c0.25-0.82,0.37-1.7,0.37-2.62c0-1.21-0.21-2.34-0.63-3.37c-0.42-1.03-1.09-1.93-2.01-2.68
			c-0.92-0.76-2.11-1.35-3.56-1.77c-1.46-0.42-3.21-0.64-5.28-0.64h-9.28v28.53h6.62v-10.55h1.68c0.51,0,0.9,0.08,1.18,0.23
			c0.28,0.16,0.52,0.42,0.73,0.78l4.74,8.28c0.48,0.84,1.28,1.25,2.39,1.25h5.99l-6.07-9.93
			C406.22,302.86,405.89,302.46,405.5,302.14z M403.26,295.43c-0.18,0.54-0.48,1.02-0.88,1.42c-0.4,0.4-0.92,0.72-1.56,0.95
			c-0.63,0.23-1.4,0.34-2.3,0.34h-2.66v-8.46h2.66c1.71,0,2.97,0.35,3.79,1.06c0.82,0.7,1.22,1.68,1.22,2.94
			C403.54,294.31,403.44,294.89,403.26,295.43z"/>
	</g>
	<g>
		<polygon class="st1" points="74.53,224.66 60.86,224.66 60.86,196.77 39.33,196.77 39.33,272.79 60.86,272.79 60.86,243.51 
			74.53,243.51 74.53,272.79 96.06,272.79 96.06,196.77 74.53,196.77 		"/>
		<path class="st1" d="M135.4,247.19c0,3.11-0.79,4.82-3.75,5.04c-2.24,0.16-5.62-1.05-6.04-4.61v-28.07h-19.6v34.28
			c0,10.39,8.14,17.78,16.71,17.78c2.79,0,8.71-1.07,12.14-3.11c-2.14,7.28-7.71,10.71-12.75,10.71c-2.46,0-4.61-0.86-6.43-1.61
			v17.03c2.14,0.86,5.14,1.93,9.86,1.93c16.28,0,29.46-12.43,29.46-29.78v-47.24h-19.6V247.19z"/>
		<path class="st1" d="M188.85,219.12c-14.57,0-26.46,12.21-26.46,26.03c0,15.64,10.61,25.18,22.6,25.18c3.53,0,8.9-1.57,11.32-2.37
			c-0.35,6.42-5.96,11.05-12.18,11.05c-2.36,0-4.82-0.96-6.96-2.14v17.78c2.25,0.75,5.25,1.93,9.75,1.93
			c17.25,0,29.46-14.68,29.46-29.25V245.9C216.39,231.44,204.49,219.12,188.85,219.12z M188.21,255.29
			c-5.86,0-10.61-4.75-10.61-10.61c0-5.86,4.75-10.61,10.61-10.61s10.61,4.75,10.61,10.61
			C198.82,250.54,194.07,255.29,188.21,255.29z"/>
		<path class="st0" d="M237.17,197.48c-5.57,0-9.75,4.5-9.75,9.32c0,5.04,3.64,9.21,9.75,9.21c6.11,0,9.86-4.18,9.86-9.21
			C247.02,201.87,242.63,197.48,237.17,197.48z"/>
		<rect x="227.31" y="220.62" class="st1" width="19.6" height="52.17"/>
		<path class="st1" d="M280.66,219.55c-12.21,0-22.6,10.28-22.6,24.1v29.14h19.28v-29.46c0-2.46,1.61-4.5,3.86-4.5
			c2.46,0,3.96,1.82,3.96,4.5v29.46h19.28v-27.53C304.44,229.19,293.62,219.55,280.66,219.55z"/>
		<path class="st1" d="M348.79,220.55c-2.72-1.39-6.48-2.07-8.14-2.07c-14.68,0-26.78,12.96-26.78,26.35
			c0,17.25,12.75,27.96,27.21,27.96c14.25,0,27-10.61,27-29.03v-46.99h-19.28V220.55z M340.93,257.74c-6.62,0-12-5.37-12-11.99
			c0-6.62,5.37-11.99,12-11.99c6.62,0,11.99,5.37,11.99,11.99C352.93,252.37,347.56,257.74,340.93,257.74z"/>
		<path class="st1" d="M406.11,249.76c0,2.57-1.71,4.5-3.96,4.5c-2.47,0-3.86-1.82-3.86-4.5v-30.21H379v28.28
			c0,14.89,10.5,24.96,23.68,24.96c12.43,0,22.71-10.71,22.71-23.36v-29.89h-19.28V249.76z"/>
		<path class="st1" d="M443.06,235.51c-0.64,2.89-0.54,5.79-0.64,7.82c-0.21,5.89-2.89,8.79-8.46,8.79h-1.5v20.68h4.82
			c8.25,0,15-2.89,19.5-8.57c4.93-6.11,5.25-12.21,6.21-19.39c0.21-3.29,5.89-4.29,10.61-4.29v-20.57h-9.43
			C452.6,219.98,445.21,225.44,443.06,235.51z"/>
		<path class="st1" d="M507.34,241.19v-20.68h-9.11v-23.75h-19.6v48.07c0,16.71,12.86,27.96,27.21,27.96c0.54,0,0.96-0.11,1.5-0.11
			v-20.57c-3,0-5.46-0.54-7.39-3c-1.93-2.46-1.82-4.82-1.82-7.93H507.34z"/>
	</g>
	<g>
		<path class="st1" d="M527.49,205.13c0,4.62-3.75,8.37-8.37,8.37s-8.37-3.75-8.37-8.37c0-4.62,3.75-8.37,8.37-8.37
			S527.49,200.51,527.49,205.13z M526.01,205.13c0-3.8-3.08-6.88-6.88-6.88s-6.88,3.08-6.88,6.88s3.08,6.88,6.88,6.88
			S526.01,208.93,526.01,205.13z"/>
		<g>
			<path class="st1" d="M515.92,200.35c0.4-0.05,0.8-0.12,1.2-0.15c1.67-0.12,4.15-0.18,4.75,1.8c0.37,1.22-0.09,2.5-1.2,3.12
				c-0.14,0.08-0.37,0.15-0.49,0.22c-0.03,0.02-0.05,0.02-0.04,0.07c0.77,0.24,1.18,1.01,1.38,1.74c0.05,0.17,0.08,0.34,0.12,0.51
				c0.21,0.82,0.36,1.67,0.69,2.45l-1.34-0.03c-0.35-0.82-0.46-1.72-0.69-2.58c-0.33-1.18-0.79-1.64-2.05-1.69
				c-0.35-0.01-0.73-0.01-1.08,0.03v4.24l-0.04,0.03c-0.01,0-0.02-0.02-0.03-0.02h-1.2V200.35z M517.18,204.86
				c0.96-0.04,2.02,0.18,2.84-0.43c0.64-0.48,0.84-1.31,0.61-2.06c-0.35-1.16-1.81-1.28-2.83-1.19c-0.21,0.02-0.42,0.05-0.62,0.1
				V204.86z"/>
		</g>
	</g>
</g>
</svg>
